<svg width="59" height="42" viewBox="0 0 59 42" fill="none" xmlns="http://www.w3.org/2000/svg">
<path d="M49.5363 32.7473C49.4985 32.5524 49.517 32.3508 49.5895 32.1658C49.6621 31.9809 49.7858 31.8203 49.9463 31.7026C52.4614 30.0731 55.4025 29.2178 58.4024 29.2435C56.1883 27.3724 52.112 25.0257 45.3209 24.2539V30.4489C45.3055 31.8365 44.7455 33.163 43.7606 34.1443C42.7757 35.1256 41.4443 35.6836 40.0516 35.6989H23.3711C22.5636 35.6813 21.7779 35.9607 21.1641 36.4836C20.5502 37.0065 20.1511 37.7364 20.043 38.5339C20.0053 38.9707 20.0584 39.4105 20.1988 39.826C20.3393 40.2415 20.5642 40.6237 20.8594 40.9488C21.1546 41.2739 21.5139 41.5349 21.9149 41.7156C22.3158 41.8963 22.7498 41.9927 23.1898 41.9988C27.66 41.8269 32.1084 41.2903 36.4906 40.3945C43.9166 38.9625 51.4453 38.1219 59.0053 37.8808C56.143 35.0909 50.3636 33.5758 50.3088 33.5663C50.1154 33.5168 49.9401 33.4135 49.8033 33.2685C49.6666 33.1235 49.574 32.9427 49.5363 32.7473Z" fill="white"/>
<path fill-rule="evenodd" clip-rule="evenodd" d="M20.0234 29.8189C21.974 29.527 23.8446 29.2235 25.6467 28.9295C30.3649 28.0163 35.1475 27.4715 39.9508 27.2999C40.7966 27.3053 41.6077 27.636 42.2146 28.2229C42.8216 28.8099 43.1776 29.6077 43.2083 30.4499C43.2014 31.2832 42.8661 32.0804 42.2746 32.6697C41.6832 33.259 40.8831 33.593 40.0467 33.5999H23.3662C22.1569 33.6056 20.9828 34.0057 20.0234 34.7391V29.8189ZM42.31 0.937239C42.8912 1.52753 43.2142 2.32311 43.2083 3.14999V26.2636C42.2663 25.5708 41.1258 25.1979 39.955 25.1999H39.9413C35.0268 25.3707 30.1334 25.9264 25.3064 26.8621C17.3 28.3273 9.19139 29.1698 1.05389 29.3821C0.915217 29.383 0.777736 29.3565 0.649433 29.3041C0.52113 29.2517 0.404564 29.1744 0.306508 29.0767C0.208452 28.979 0.130862 28.8629 0.0782483 28.735C0.0256344 28.6072 -0.000954828 28.4702 2.6189e-05 28.3321V5.23213C2.6189e-05 4.95366 0.111057 4.68659 0.308694 4.48967C0.506331 4.29276 0.774385 4.18214 1.05389 4.18214C9.30636 3.96993 17.5296 3.1165 25.6489 1.62959C30.3973 0.707571 35.2117 0.162661 40.0467 0H40.1068C40.9366 0.00997185 41.7288 0.346948 42.31 0.937239ZM30.19 18.114C29.753 18.5514 29.1602 18.7972 28.5421 18.7972C28.0406 18.7955 27.5531 18.6315 27.1523 18.3298C26.7515 18.0281 26.4588 17.6049 26.318 17.1231L19.9967 15.858V21.9075C19.9967 22.5261 19.7512 23.1195 19.3141 23.5569C18.8771 23.9944 18.2843 24.2402 17.6662 24.2402C17.0481 24.2402 16.4553 23.9944 16.0182 23.5569C15.5812 23.1195 15.3356 22.5261 15.3356 21.9075V15.6092C14.3916 15.4173 13.5525 14.8812 12.9812 14.105C12.4099 13.3287 12.1472 12.3676 12.244 11.4084C12.3408 10.4491 12.7902 9.56008 13.5051 8.91385C14.2199 8.26762 15.1492 7.91031 16.1125 7.91127H19.1422L26.318 6.47511C26.4744 5.93664 26.82 5.47288 27.291 5.16924C27.762 4.86561 28.3268 4.74255 28.8813 4.82273C29.4358 4.90291 29.9427 5.18093 30.3086 5.60559C30.6746 6.03024 30.8749 6.57293 30.8726 7.13371V16.4645C30.8726 17.0832 30.6271 17.6765 30.19 18.114ZM29.0914 6.58389C28.9457 6.43806 28.7481 6.35614 28.5421 6.35614C28.3361 6.35614 28.1385 6.43806 27.9928 6.58389C27.8471 6.72971 27.7652 6.92748 27.7652 7.13371V16.4645C27.7652 16.6707 27.8471 16.8685 27.9928 17.0143C28.1385 17.1602 28.3361 17.2421 28.5421 17.2421C28.7481 17.2421 28.9457 17.1602 29.0914 17.0143C29.2371 16.8685 29.3189 16.6707 29.3189 16.4645V7.13371C29.3189 6.92748 29.2371 6.72971 29.0914 6.58389ZM16.8893 19.5748H18.443V15.6869H16.8893V19.5748ZM14.4645 10.1496C14.0274 10.5871 13.7819 11.1804 13.7819 11.7991C13.7819 12.4178 14.0274 13.0111 14.4645 13.4486C14.9016 13.886 15.4944 14.1318 16.1125 14.1318H18.443V9.46641H16.1125C15.4944 9.46641 14.9016 9.71217 14.4645 10.1496ZM17.1168 22.4573C17.2625 22.6031 17.4601 22.685 17.6662 22.685C17.8722 22.685 18.0698 22.6031 18.2155 22.4573C18.3612 22.3115 18.443 22.1137 18.443 21.9075V21.1299H16.8893V21.9075C16.8893 22.1137 16.9712 22.3115 17.1168 22.4573ZM26.2115 8.08156L19.9967 9.32567V14.271L26.2115 15.5151V8.08156Z" fill="white"/>
</svg>
