<svg width="710" height="450" viewBox="0 0 710 450" fill="none" xmlns="http://www.w3.org/2000/svg">
<path d="M423.359 119.113C423.522 120.178 424.066 121.149 424.89 121.847C423.725 123.01 422.857 124.434 422.357 125.999C421.858 127.564 421.742 129.225 422.02 130.844C411.453 140.145 402.577 151.299 398.442 164.581C398.024 165.922 399.671 166.597 400.579 165.859C402.432 164.3 404.612 163.175 406.959 162.564C409.307 161.954 411.762 161.874 414.144 162.332C418.235 163.202 421.784 165.419 425.75 166.588C431.961 168.224 438.567 167.419 444.198 164.339C444.417 164.339 443.76 163.904 456.231 174.733C458.482 171.449 461.737 168.976 465.514 167.681C465.514 167.681 456.231 161.178 451.527 157.955C455.312 152.205 455.003 144.574 445.725 136.618C439.866 131.595 433.642 128.268 440.104 120.328C441.089 119.117 439.494 117.471 438.455 118.444C438.35 118.435 438.244 118.455 438.151 118.503C433.297 121.726 428.627 125.215 424.162 128.954C424.075 126.686 424.717 124.45 425.995 122.57C426.697 122.732 427.429 122.711 428.12 122.509C428.812 122.308 429.439 121.932 429.942 121.419C430.446 120.906 430.808 120.273 430.993 119.58C431.179 118.887 431.182 118.159 431.003 117.464C430.001 113.149 422.604 114.185 423.359 119.113ZM449.136 143.853C450.183 145.373 450.857 147.117 451.101 148.944C451.345 150.771 451.153 152.63 450.54 154.369C448.676 152.775 446.718 151.293 444.677 149.932C442.664 148.429 440.468 147.185 438.142 146.231C437.405 145.937 437.111 147.008 437.652 147.385C441.693 150.215 445.042 154.315 449.258 156.869C447.965 158.748 446.276 160.323 444.309 161.487C437.168 165.87 429.408 165.678 421.832 162.46C418.216 160.619 414.227 159.622 410.166 159.542C412.026 154.192 415.195 149.388 419.388 145.562C419.878 145.074 419.213 144.112 418.594 144.589C413.765 148.312 408.455 153.516 407.6 159.847C405.631 160.213 403.733 160.89 401.979 161.853C408.088 144.953 422.381 132.065 436.431 121.246C430.108 132.25 444.172 136.095 449.136 143.853Z" fill="#0167FF"/>
<path d="M421.22 106.648C421.298 106.821 421.426 106.966 421.588 107.066C421.749 107.166 421.937 107.216 422.127 107.209C422.317 107.203 422.5 107.14 422.655 107.029C422.809 106.919 422.926 106.765 422.992 106.587C424.315 100.748 424.788 94.7502 424.397 88.7772C424.353 86.2232 423.664 80.8759 419.693 81.8469C416.212 82.6982 416.737 88.4745 416.945 91.0263C417.62 96.4087 419.06 101.668 421.22 106.648Z" fill="#0167FF"/>
<path d="M400.629 109.265C404.656 111.701 409.12 111.816 413.701 112.06H413.762C414.051 112.086 414.341 112.013 414.583 111.855C414.826 111.696 415.008 111.461 415.1 111.187C415.192 110.913 415.188 110.616 415.089 110.344C414.991 110.072 414.803 109.841 414.556 109.689C412.003 108.083 409.664 106.163 407.592 103.976C406.315 102.451 404.859 101.084 403.256 99.9022C400.917 98.5327 397.397 98.5676 396.354 101.483C395.198 104.707 398.124 107.747 400.629 109.265Z" fill="#0167FF"/>
<path d="M403.317 130.965C405.958 127.588 409.747 120.862 413.516 119.292C414.731 118.79 414.311 116.863 412.967 117.287C408.981 118.447 405.307 120.483 402.216 123.244C400.282 125.088 397.432 128.47 398.497 131.389C399.51 134.194 402.085 132.539 403.317 130.965Z" fill="#0167FF"/>
<path d="M446.436 293.089C446.318 292.001 446.436 291.254 445.458 290.779C443.886 290.471 442.272 290.45 440.693 290.718C429.452 290.84 418.215 291.326 406.976 291.75C404.817 288.885 365.556 239.746 357.194 231.268C358.063 230.349 358.537 229.129 358.514 227.868C358.491 226.607 357.974 225.405 357.072 224.518C354.04 221.638 347.008 221.239 345.772 226.28C345.531 227.308 345.574 228.382 345.897 229.388C346.219 230.394 346.809 231.295 347.603 231.995C336.73 243.598 322.29 261.824 306.435 281.902C302.645 286.692 298.493 291.384 295.194 296.49C288.597 296.795 282.001 297.178 275.405 297.579C273.192 297.557 270.983 297.747 268.806 298.145C266.975 298.63 266.87 300.457 266.669 302.158C264.636 319.358 267.297 395.482 270.64 424.521C270.644 424.77 270.73 425.011 270.884 425.207C271.039 425.404 271.253 425.545 271.495 425.609C286.77 428.316 302.335 429.032 317.796 427.736C318.833 427.667 318.89 426.047 317.796 426.095C302.762 426.821 287.692 425.965 272.839 423.543C268.616 381.367 267.15 308.733 269.296 300.324C270.425 300.324 271.215 300.152 272.228 300.08C275.527 299.85 443.808 292.909 444.237 292.909C443.76 294.801 450.582 342.638 449.925 417.159C416.69 421.684 395.23 420.691 374.855 423.543C373.999 423.663 374.183 425.067 375.038 425.067C400.448 423.606 425.988 422.633 451.207 419.108C451.432 419.041 451.629 418.905 451.772 418.72C451.915 418.534 451.995 418.309 452.002 418.076C452.274 376.347 450.417 334.631 446.436 293.089ZM297.395 296.37C300.954 292.295 332.155 250.933 348.397 232.665C349.574 233.396 350.948 233.753 352.334 233.688C353.72 233.622 355.053 233.138 356.155 232.3C356.155 232.3 402.395 289.016 404.959 291.872C393.781 292.299 322.071 295.155 297.395 296.37Z" fill="#282828"/>
<path d="M521.755 210.72C521.215 209.015 515.647 205.187 512.409 203.06C510.998 202.143 509.302 201.761 507.632 201.984C505.961 202.208 504.427 203.022 503.31 204.277L502.148 205.614C501.791 206.005 501.594 206.514 501.594 207.042C501.594 207.571 501.791 208.08 502.148 208.471C504.117 210.692 512.295 219.899 515.275 219.899C518.769 219.899 522.541 213.193 521.755 210.72Z" fill="#0167FF"/>
<path d="M433.74 141.786C433.54 141.738 433.332 141.729 433.128 141.761C432.924 141.793 432.729 141.864 432.553 141.972C432.377 142.079 432.224 142.22 432.103 142.386C431.982 142.552 431.895 142.741 431.848 142.94C431.802 143.12 431.793 143.307 431.82 143.491C431.848 143.674 431.912 143.85 432.008 144.009C432.105 144.167 432.233 144.305 432.384 144.414C432.534 144.523 432.706 144.601 432.887 144.643C433.076 144.699 433.273 144.717 433.469 144.697C433.664 144.676 433.854 144.618 434.027 144.525C434.2 144.432 434.353 144.305 434.476 144.154C434.6 144.002 434.693 143.827 434.749 143.639C434.805 143.452 434.823 143.255 434.803 143.06C434.783 142.866 434.724 142.677 434.63 142.505C434.537 142.333 434.41 142.181 434.257 142.058C434.104 141.934 433.929 141.842 433.74 141.786Z" fill="#0167FF"/>
<path d="M276.7 306.58C279.002 306.437 281.312 306.498 283.603 306.763C284.762 306.778 284.696 305.073 283.603 304.999C276.33 304.511 274.941 304.035 273.891 304.694C272.841 305.354 272.852 306.58 272.797 307.673C272.797 309.254 273.038 326.517 273.164 333.508C273.486 351.432 274.32 399.362 277.989 417.458C278.161 418.309 279.406 417.941 279.273 417.092C276.044 396.625 274.762 308.08 274.873 307.673C275.201 306.465 275.545 306.789 276.7 306.58Z" fill="#0167FF"/>
<path d="M436.967 412.232C433.477 412.515 409.298 414.67 400.684 415.391C394.821 415.883 388.896 416.915 383.031 416.972C382.883 416.981 382.744 417.045 382.642 417.153C382.541 417.26 382.484 417.402 382.484 417.55C382.484 417.697 382.541 417.839 382.642 417.946C382.744 418.054 382.883 418.119 383.031 418.128C396.475 418.156 416.163 416.386 436.783 414.426C438.894 414.358 440.997 414.134 443.075 413.758C445.401 413.164 444.953 411.082 444.97 409.138C445.001 405.489 445.213 383.058 445.213 375.46C445.213 375.194 445.107 374.939 444.918 374.751C444.729 374.563 444.473 374.457 444.205 374.457C443.938 374.457 443.682 374.563 443.493 374.751C443.304 374.939 443.198 375.194 443.198 375.46C443.198 381.478 442.861 401.72 442.83 405.854C442.83 406.889 443.38 410.96 442.649 411.629C441.857 412.351 438.008 412.147 436.967 412.232Z" fill="#0167FF"/>
<path d="M504.843 281.593C488.627 299.133 472.437 316.721 456.274 334.357C455.777 334.897 456.578 335.694 457.068 335.148C474.109 318.43 490.596 300.991 505.994 282.747C506.672 281.957 505.574 280.803 504.843 281.593Z" fill="#0167FF"/>
<path d="M486.941 321.96C480.883 326.885 475.886 333.083 470.327 338.494C469.771 339.036 470.58 339.844 471.182 339.345C477.134 334.266 482.765 328.826 488.041 323.055C488.167 322.906 488.232 322.716 488.224 322.521C488.216 322.327 488.134 322.143 487.996 322.005C487.858 321.867 487.673 321.786 487.477 321.778C487.282 321.77 487.091 321.835 486.941 321.96Z" fill="#0167FF"/>
<path d="M232.165 309.618C232.666 309.019 231.979 307.911 231.249 308.462C221.495 315.825 212.906 325.098 204.067 333.446C194.878 342.118 185.689 350.786 176.763 359.706C176.707 359.757 176.661 359.819 176.629 359.888C176.598 359.957 176.58 360.031 176.578 360.107C176.576 360.183 176.59 360.258 176.618 360.329C176.647 360.399 176.689 360.463 176.743 360.517C176.797 360.57 176.861 360.612 176.932 360.641C177.002 360.669 177.078 360.682 177.154 360.68C177.231 360.678 177.306 360.661 177.375 360.63C177.444 360.598 177.506 360.553 177.557 360.496C188.188 351.134 207.953 332.725 218.299 323.047C223.185 318.849 227.815 314.364 232.165 309.618Z" fill="#0167FF"/>
<path d="M248.533 308.524C237.704 318.975 226.699 329.282 215.915 339.831C215.237 340.484 216.221 341.411 216.954 340.863C228.346 330.975 239.174 320.463 249.389 309.375C249.815 308.768 249.091 307.986 248.533 308.524Z" fill="#0167FF"/>
<path d="M238.1 205.489C241.938 204.635 245.515 202.884 248.538 200.381C248.728 200.263 248.89 200.105 249.011 199.918C249.132 199.731 249.21 199.519 249.239 199.298C249.269 199.077 249.248 198.853 249.18 198.641C249.112 198.428 248.997 198.234 248.844 198.071C244.94 193.544 240.801 189.222 236.444 185.123C235.702 184.47 234.361 185.31 234.978 186.211C238.21 190.621 241.717 194.823 245.48 198.794C242.793 200.497 239.929 201.905 237.234 203.584C236.262 204.215 237.006 205.676 238.1 205.489Z" fill="#191919"/>
<path d="M221.831 193.091C223.282 191.796 222.203 189.623 221.282 188.412C220.311 187.132 219.329 185.553 217.563 185.434C215.316 185.434 215.972 189.664 217.44 191.571C218.397 192.808 220.226 194.53 221.831 193.091Z" fill="#191919"/>
<path d="M239.433 174.73C235.683 174.73 240.03 185.68 243.648 182.451C245.097 181.156 243.985 179.004 243.097 177.77C242.152 176.453 241.143 174.907 239.433 174.73Z" fill="#191919"/>
<path d="M218.361 179.35C218.476 179.315 218.58 179.252 218.663 179.165C218.747 179.079 218.807 178.973 218.837 178.857C218.868 178.741 218.869 178.62 218.839 178.504C218.809 178.388 218.75 178.281 218.667 178.194C217.503 177.49 216.163 177.128 214.801 177.149C213.439 177.171 212.111 177.575 210.97 178.316C209.985 179.12 209.205 180.145 208.695 181.308C208.185 182.47 207.96 183.737 208.039 185.003C208.046 185.149 208.099 185.289 208.19 185.404C208.282 185.519 208.407 185.602 208.548 185.642C208.69 185.683 208.84 185.678 208.979 185.629C209.117 185.58 209.237 185.489 209.321 185.368C210.237 183.727 210.498 181.741 212.007 180.504C213.985 178.889 216.16 179.638 218.361 179.35Z" fill="#191919"/>
<path d="M231.553 215.336C232.595 220.306 236.502 228.97 242.792 228.399C250.012 227.746 248.358 217.759 247.923 212.897C247.916 212.744 247.875 212.595 247.804 212.46C247.732 212.324 247.632 212.206 247.51 212.113C247.388 212.02 247.246 211.955 247.096 211.923C246.946 211.89 246.791 211.89 246.641 211.924C241.773 212.494 236.941 213.326 232.164 214.417C232.059 214.429 231.958 214.463 231.868 214.518C231.778 214.573 231.701 214.647 231.643 214.735C231.585 214.822 231.547 214.921 231.531 215.025C231.516 215.129 231.523 215.235 231.553 215.336ZM246.028 214.121C246.518 218.436 247.435 226.459 242.241 226.52C237.172 226.581 234.728 219.834 233.271 215.699C237.57 215.656 241.85 215.127 246.028 214.121Z" fill="#191919"/>
<path d="M458.722 201.904C459.457 200.262 459.643 199.897 458.845 198.377C457.258 195.509 456.504 192.258 456.666 188.988C456.828 185.717 457.901 182.556 459.764 179.858C461.627 177.159 464.207 175.029 467.216 173.705C470.225 172.381 473.545 171.916 476.805 172.361C477.783 172.47 477.964 170.837 477.047 170.658C473.477 169.97 469.784 170.291 466.388 171.586C462.991 172.881 460.028 175.097 457.833 177.984C455.639 180.87 454.302 184.311 453.973 187.916C453.644 191.521 454.338 195.145 455.974 198.377C456.869 200.119 456.519 200.685 455.668 202.514C447.925 219.15 427.966 239.323 402.099 268.05C401.552 268.659 402.395 269.498 402.955 268.901C418.247 252.622 449.724 222.018 458.722 201.904Z" fill="#191919"/>
<path d="M474.418 190.173C474.537 191.025 475.893 190.781 475.884 189.993C475.809 187.52 476.272 185.061 477.242 182.784C478.211 180.507 479.665 178.466 481.503 176.8C485.764 173.136 490.91 172.903 496.224 173.336C496.396 173.332 496.562 173.272 496.696 173.166C496.83 173.059 496.925 172.911 496.966 172.746C497.008 172.58 496.993 172.405 496.925 172.248C496.857 172.092 496.739 171.961 496.59 171.878C486.972 167.199 472.432 176.045 474.418 190.173Z" fill="#191919"/>
<path d="M486.875 183.122C484.767 184.941 483.223 187.32 482.423 189.98C481.622 192.64 481.599 195.472 482.355 198.145C482.552 198.798 483.705 198.752 483.637 197.962C483.303 195.597 483.532 193.188 484.307 190.928C485.082 188.667 486.381 186.621 488.098 184.953C492.419 181.106 497.068 181.863 502.319 182.34C503.111 182.412 503.179 181.36 502.684 181.003C498.162 177.707 490.837 179.767 486.875 183.122Z" fill="#191919"/>
<path d="M509.539 191.388C510.213 191.443 510.395 190.476 509.845 190.171C503.188 185.734 493.874 191.582 491.52 198.136C491.28 198.804 492.319 199.17 492.614 198.621C494.307 195.522 497.058 193.128 500.37 191.872C503.35 191.023 506.485 190.858 509.539 191.388Z" fill="#191919"/>
<path d="M514.726 198.685C514.079 197.491 513.069 196.53 511.84 195.94C510.612 195.351 509.227 195.162 507.885 195.402C504.863 196.196 502.275 198.139 500.678 200.813C500.256 201.363 501.177 202.102 501.656 201.603C504.282 198.866 509.994 195.089 512.772 199.9C513.481 201.13 515.374 199.974 514.726 198.685Z" fill="#191919"/>
<path d="M494.578 214.546C484.365 233.375 487.155 229.352 473.689 248.466C461.327 266.017 451.657 274.04 444.919 282.749C444.306 283.54 445.593 284.334 446.262 283.784C452.024 278.693 457.337 273.121 462.143 267.127C475.826 251.515 487.087 233.956 495.556 215.032C495.613 214.904 495.619 214.758 495.571 214.626C495.524 214.494 495.427 214.386 495.301 214.323C495.174 214.26 495.029 214.249 494.894 214.29C494.76 214.332 494.646 214.424 494.578 214.546Z" fill="#191919"/>
<path d="M230.818 394.361C230.882 394.321 230.938 394.269 230.982 394.208C231.026 394.146 231.057 394.077 231.074 394.004C231.091 393.931 231.093 393.855 231.081 393.781C231.068 393.706 231.041 393.635 231.001 393.572C230.961 393.508 230.909 393.453 230.847 393.409C230.786 393.365 230.716 393.334 230.642 393.317C230.569 393.3 230.492 393.298 230.418 393.311C230.343 393.323 230.272 393.35 230.208 393.39C211.666 404.842 192.475 415.45 171.264 420.865C167.729 421.456 164.239 422.289 160.819 423.358C158.071 417.279 154.958 411.503 152.696 405.182C145.887 386.727 144.344 366.758 148.237 347.484C153.098 325.779 166.855 306.745 183.787 292.654C195.003 283.722 207.665 276.755 221.229 272.048C222.023 274.175 222.793 276.311 223.55 278.491C224.143 280.2 226.845 279.464 226.239 277.761C220.369 261.295 210.406 237.538 201.683 224.2C202.537 223.646 203.248 222.901 203.759 222.023C204.311 221.111 202.943 219.937 202.171 220.808C197.896 225.626 191.424 223.055 188.856 218.01C186.782 213.937 188.786 203.989 195.148 206.826C195.204 206.857 195.266 206.878 195.33 206.886C195.394 206.894 195.46 206.89 195.522 206.873C195.584 206.856 195.643 206.827 195.694 206.787C195.745 206.748 195.788 206.699 195.82 206.643C195.852 206.587 195.872 206.525 195.881 206.461C195.889 206.397 195.884 206.333 195.867 206.271C195.85 206.209 195.821 206.15 195.781 206.1C195.741 206.049 195.692 206.006 195.636 205.974C190.352 202.628 184.817 209.425 185.924 216.188C185.863 216.127 185.863 216.066 185.802 216.066C183.043 224.305 181.721 232.302 174.928 238.982C161.294 252.394 136.44 260.082 123.733 276.124C111.508 299.856 101.964 329.541 108.035 355.636C111.217 369.311 117.318 376.12 117.38 376.181C117.412 376.213 117.45 376.238 117.492 376.256C117.534 376.273 117.579 376.282 117.625 376.282C117.67 376.282 117.715 376.273 117.757 376.256C117.799 376.238 117.838 376.213 117.87 376.181C124.892 369.323 134.043 365.038 143.828 364.023C143.451 377.537 145.542 391.008 149.998 403.78C152.358 411.259 155.706 418.394 159.955 424.995C160.054 425.154 160.212 425.268 160.395 425.313C160.577 425.358 160.77 425.331 160.933 425.237C164.677 425.023 168.375 424.307 171.926 423.11C197.216 416.806 216.311 403.249 230.818 394.361Z" fill="#191919"/>
<path d="M174.322 236.188C183.8 225.955 180.17 211.502 191.547 202.44C193.008 201.277 194.61 200.191 196.128 199.157C204.558 188.27 205.659 171.135 205.84 166.21C207.356 165.457 209.936 164.599 220.562 159.524C226.212 162.399 232.481 163.859 238.826 163.778C246.52 163.576 250.64 159.615 255.806 154.416C256.353 153.865 257.138 154.592 256.845 155.206C255.027 158.832 252.122 161.805 248.531 163.715C248.438 163.739 248.351 163.784 248.277 163.845C248.203 163.907 248.143 163.984 248.102 164.071C248.061 164.158 248.041 164.253 248.041 164.35C248.041 164.446 248.063 164.54 248.104 164.627C260.024 191.068 267.119 197.818 266.427 208.761C265.388 225.234 248.269 240.386 231.733 238.06C230.939 237.947 230.757 239.273 231.551 239.458C235.018 240.147 238.589 240.136 242.051 239.426C245.514 238.715 248.798 237.319 251.708 235.321C252.264 239.042 256.819 248.28 259.584 250.762C261.97 252.446 264.847 253.301 267.771 253.194C268.563 253.258 269.359 253.314 270.092 253.314C268.291 270.406 252.406 282.466 233.505 279.418C233.429 279.398 233.35 279.393 233.272 279.403C233.194 279.414 233.118 279.439 233.05 279.479C232.982 279.518 232.923 279.571 232.875 279.633C232.827 279.695 232.792 279.766 232.772 279.842C232.752 279.918 232.747 279.997 232.758 280.075C232.768 280.152 232.794 280.227 232.834 280.295C232.873 280.363 232.926 280.422 232.989 280.469C233.051 280.517 233.123 280.552 233.199 280.572C238.247 281.89 243.542 281.958 248.622 280.77C253.702 279.582 258.413 277.174 262.343 273.757C268.274 268.444 272.053 261.161 272.971 253.273C281.097 253.273 291.233 251.259 301.802 252.907C308.226 253.858 314.574 255.259 320.799 257.101C321.593 257.344 322.138 256.082 321.348 255.764C312.138 251.868 302.276 249.727 292.272 249.45C293.464 221.1 286.311 193.021 271.689 168.662C265.531 158.177 258.059 148.512 249.454 139.9C251.235 130.81 252.517 114.058 245.238 107.676C239.134 102.325 231.256 107.317 225.937 111.323C220.749 115.397 216.43 120.46 213.233 126.216C203.948 121.535 192.831 123.168 183.546 127.857C183.436 126.991 183.069 126.176 182.493 125.517C181.916 124.858 181.156 124.384 180.308 124.156C179.174 123.855 177.985 123.813 176.832 124.034C175.679 124.255 174.592 124.733 173.651 125.432C170.96 127.494 168.947 133.76 172.856 135.524C163.571 144.581 157.645 158.927 160.517 171.814C160.552 171.926 160.626 172.021 160.724 172.084C160.823 172.147 160.941 172.174 161.057 172.159C161.173 172.145 161.281 172.09 161.361 172.005C161.441 171.919 161.488 171.809 161.495 171.693C160.46 161.819 162.946 151.898 168.518 143.664C174.09 135.43 182.393 129.407 191.976 126.649C198.734 124.985 205.837 125.364 212.377 127.738C211.154 129.865 210.008 132.062 208.894 134.243C203.825 144.183 199.001 154.666 199.121 165.973C181.695 173.467 176.821 174.364 160.029 179.59C159.929 179.618 159.835 179.666 159.753 179.731C159.671 179.796 159.603 179.876 159.552 179.967C159.501 180.058 159.469 180.158 159.457 180.261C159.445 180.364 159.454 180.469 159.482 180.569C159.511 180.669 159.559 180.763 159.624 180.844C159.689 180.926 159.77 180.994 159.861 181.044C159.953 181.095 160.053 181.127 160.157 181.139C160.261 181.151 160.366 181.142 160.467 181.114C162.18 180.896 163.889 180.506 165.538 180.203C161.6 234.302 146.148 236.264 126.984 270.29C140.617 256.441 161.259 250.288 174.322 236.188ZM173.712 134.794C171.391 132.728 172.428 128.957 174.629 127.257C177.07 125.369 181.164 125.493 181.592 129.079C178.72 130.624 176.07 132.547 173.712 134.794ZM208.345 140.325C212.086 132.613 215.917 124.398 221.844 118.077C236.028 102.956 247.927 103.833 248.415 124.461C248.531 129.704 248.06 134.944 247.011 140.083L242.245 144.825C230.945 152.241 218.47 157.49 206.157 162.999C204.263 163.846 202.37 164.701 200.416 165.492C201.657 156.727 204.335 148.225 208.345 140.325Z" fill="#191919"/>
<path d="M242.974 168.227C241.925 167.682 240.769 167.373 239.587 167.32C238.405 167.268 237.226 167.474 236.133 167.925C235.208 168.38 234.405 169.048 233.789 169.872C233.173 170.696 232.763 171.654 232.59 172.667C232.402 173.455 233.586 174.014 233.995 173.274C234.892 171.654 235.59 170.069 237.478 169.505C239.186 169.228 240.934 169.31 242.608 169.747C242.778 169.726 242.937 169.654 243.065 169.541C243.192 169.428 243.282 169.279 243.321 169.113C243.361 168.948 243.349 168.774 243.287 168.616C243.225 168.458 243.116 168.322 242.974 168.227Z" fill="#191919"/>
<path d="M375.716 276.188C370.56 274.564 364.959 273.664 359.651 272.541C354.343 271.417 348.961 270.231 343.588 269.197C343.76 267.276 343.78 265.346 343.647 263.422C343.642 263.252 343.595 263.085 343.51 262.936C343.425 262.788 343.304 262.663 343.159 262.571C339.234 260.504 334.892 259.341 330.455 259.168C329.538 259.155 329.597 260.453 330.455 260.566C333.527 260.884 336.534 261.663 339.372 262.876C340.114 263.222 341.144 263.483 341.51 264.274C343.339 267.459 339.838 277.912 337.661 282.563C337.582 282.723 337.567 282.907 337.618 283.078C337.668 283.249 337.782 283.395 337.936 283.487C338.09 283.579 338.273 283.61 338.448 283.574C338.624 283.538 338.78 283.437 338.884 283.292C341.217 279.621 342.737 275.497 343.343 271.195C348.78 272.41 354.282 273.39 359.712 274.476C364.926 275.733 370.208 276.688 375.533 277.335C376.263 277.403 376.322 276.371 375.716 276.188Z" fill="#191919"/>
<path d="M431.961 341.879L286.926 345.944C286.668 345.973 286.417 346.054 286.19 346.183C285.963 346.311 285.764 346.484 285.605 346.692C285.445 346.9 285.328 347.138 285.261 347.392C285.194 347.646 285.178 347.911 285.214 348.172L287.859 407.402C287.92 407.862 288.148 408.284 288.5 408.583C288.851 408.883 289.301 409.039 289.76 409.021L433.787 404.984C434.277 404.965 434.739 404.752 435.075 404.392C435.411 404.032 435.595 403.554 435.586 403.059L433.903 343.597C433.904 343.35 433.852 343.106 433.751 342.88C433.65 342.655 433.503 342.455 433.319 342.292C433.135 342.129 432.918 342.008 432.684 341.937C432.45 341.866 432.204 341.846 431.961 341.879ZM339.384 397.339L303.286 398.351C302.764 398.361 302.259 398.166 301.875 397.808C301.491 397.45 301.259 396.957 301.226 396.43C300.881 389.92 299.81 369.202 299.226 357.072C299.212 356.801 299.251 356.53 299.342 356.275C299.433 356.02 299.574 355.786 299.757 355.587C299.939 355.388 300.159 355.229 300.404 355.117C300.648 355.006 300.913 354.946 301.181 354.94L337.439 353.923C337.968 353.905 338.482 354.099 338.87 354.462C339.258 354.825 339.489 355.328 339.512 355.862C339.886 366.246 341.039 387.081 341.348 395.184C341.36 395.456 341.318 395.728 341.225 395.983C341.133 396.239 340.991 396.474 340.809 396.674C340.626 396.874 340.407 397.036 340.162 397.15C339.918 397.264 339.653 397.329 339.384 397.339ZM350.61 366.556C351.707 365.779 353.049 365.879 353.476 366.721C353.665 367.27 353.656 367.868 353.451 368.41C353.246 368.953 352.859 369.405 352.357 369.688C351.249 370.45 349.917 370.364 349.488 369.523C348.935 368.683 349.493 367.347 350.61 366.556ZM349.821 379.989C349.627 379.43 349.643 378.819 349.865 378.272C350.087 377.725 350.501 377.279 351.026 377.019C352.208 376.252 353.588 376.339 354.055 377.18C354.245 377.738 354.227 378.348 354.005 378.894C353.782 379.44 353.371 379.885 352.847 380.147C351.701 380.954 350.313 380.879 349.821 379.989ZM353.682 389.662C352.501 390.429 351.12 390.342 350.653 389.502C350.464 388.943 350.481 388.334 350.703 387.788C350.925 387.242 351.336 386.797 351.859 386.535C353.041 385.768 354.421 385.855 354.888 386.693C355.088 387.251 355.075 387.864 354.852 388.413C354.629 388.962 354.212 389.407 353.682 389.662ZM395.829 388.726C382.716 389.808 367.888 390.118 362.586 389.413C357.282 388.665 363.611 387.182 376.73 386.081C389.849 384.979 404.671 384.69 409.974 385.394C415.231 386.143 408.902 387.646 395.829 388.726ZM368.686 375.588C375.35 374.649 382.971 374.579 385.694 375.354C388.419 376.176 385.193 377.57 378.485 378.492C371.819 379.413 364.2 379.5 361.477 378.723C358.753 377.946 361.976 376.532 368.686 375.588ZM395.755 367.531C381.95 368.712 366.244 369.092 360.619 368.394C355.036 367.695 361.725 366.161 375.522 365C389.326 363.802 405.032 363.439 410.657 364.137C416.241 364.84 409.589 366.35 395.749 367.533L395.755 367.531Z" fill="#0167FF"/>
<path d="M433.711 311.33L287.853 315.418C287.062 315.44 286.499 316.541 286.537 317.878L286.893 330.443C286.931 331.78 287.64 332.93 288.432 332.823L434.291 328.735C435.081 328.713 435.644 327.612 435.606 326.275L435.25 313.71C435.133 312.375 434.506 311.308 433.711 311.33ZM432.058 321.78C432.065 321.961 432.037 322.142 431.977 322.312C431.916 322.482 431.824 322.637 431.705 322.769C431.587 322.901 431.444 323.006 431.286 323.079C431.128 323.152 430.957 323.191 430.784 323.193L291.325 327.102C291.152 327.108 290.98 327.079 290.818 327.015C290.656 326.951 290.508 326.854 290.383 326.729C290.257 326.604 290.156 326.454 290.086 326.288C290.016 326.122 289.979 325.943 289.975 325.762L289.882 322.462C289.875 322.281 289.902 322.1 289.963 321.93C290.023 321.761 290.116 321.605 290.234 321.474C290.352 321.342 290.495 321.237 290.653 321.164C290.811 321.091 290.981 321.052 291.154 321.049L430.613 317.14C430.786 317.133 430.958 317.163 431.12 317.227C431.282 317.291 431.43 317.388 431.556 317.513C431.682 317.638 431.783 317.788 431.853 317.954C431.923 318.12 431.961 318.299 431.965 318.48L432.058 321.78Z" fill="#0167FF"/>
<path d="M9.00781 353.375C9.00781 384.104 29.3086 413.772 47.4209 433.231C58.2328 444.849 73.9254 450 89.8176 450H401.795C463.871 450 560.943 352.939 562.04 291.042C562.177 283.276 561.893 275.138 561.042 266.578C552.254 178.142 492.479 151.119 430.066 117.549C367.654 83.9751 408.091 34.8443 300.849 5.36591C193.604 -24.1127 80.2097 73.3301 83.7259 164.222C87.2421 255.114 9.00781 268.217 9.00781 353.375Z" fill="#EFEBFF"/>
<path d="M475.628 116.564C439.386 104.275 416.433 69.2757 409.486 53.3118C396.801 17.1673 433.949 36.1431 460.227 68.6734C486.501 101.204 520.931 131.926 475.628 116.564Z" fill="#EFEBFF"/>
<path d="M263.917 237.353C227.675 225.064 204.722 190.065 197.775 174.101C185.09 137.956 222.238 156.932 248.516 189.462C274.79 221.994 309.22 252.715 263.917 237.353Z" fill="#EFEBFF"/>
<path d="M47.3762 66.4347L40.5417 75.5561C40.1257 76.111 39.4475 76.3783 38.7834 76.2484L30.3358 74.599C28.5185 74.2443 27.4221 76.6243 28.8246 77.8797L35.4638 83.8218C35.9485 84.2557 36.1775 84.9238 36.066 85.5794L34.4005 95.3773C34.0874 97.2193 36.2636 98.3589 37.4959 96.9989L44.3155 89.4694C44.7161 89.0272 45.2965 88.8136 45.8746 88.8956L53.7674 90.0158C55.5452 90.2679 56.5522 87.9589 55.2001 86.7296L49.3305 81.392C48.8593 80.9634 48.6341 80.3114 48.7352 79.6683L50.5859 67.8988C50.8886 65.9738 48.5285 64.8972 47.3762 66.4347ZM513.028 83.6836L512.314 88.8003C512.268 89.1117 512.053 89.3792 511.751 89.4934L507.915 90.9484C507.089 91.2613 507.183 92.4276 508.045 92.556L512.121 93.1628C512.417 93.2072 512.663 93.4026 512.767 93.6772L514.323 97.7782C514.616 98.548 515.767 98.4446 515.962 97.6282L517.036 93.1149C517.099 92.8499 517.287 92.6268 517.543 92.5156L521.031 90.9978C521.817 90.6557 521.703 89.5383 520.867 89.4074L517.244 88.8391C516.955 88.7935 516.712 88.6031 516.608 88.3359L514.677 83.4464C514.363 82.6466 513.15 82.8211 513.028 83.6836Z" fill="#EFEBFF"/>
<path d="M156.938 353.375C156.938 384.104 177.238 413.772 195.351 433.231C206.162 444.849 221.855 450 237.747 450H549.725C611.8 450 708.873 352.939 709.97 291.042C710.107 283.276 709.823 275.138 708.972 266.578C700.183 178.142 640.408 151.119 577.996 117.549C515.584 83.9751 556.021 34.8443 448.779 5.36591C341.534 -24.1127 228.139 73.3301 231.656 164.222C235.172 255.114 156.938 268.217 156.938 353.375Z" fill="#EFEBFF"/>
<path d="M195.298 66.4347L188.464 75.5561C188.048 76.111 187.369 76.3783 186.705 76.2484L178.258 74.599C176.44 74.2443 175.344 76.6243 176.746 77.8797L183.386 83.8218C183.87 84.2557 184.099 84.9238 183.988 85.5794L182.322 95.3773C182.009 97.2193 184.186 98.3589 185.418 96.9989L192.237 89.4694C192.638 89.0272 193.218 88.8137 193.797 88.8956L201.689 90.0158C203.467 90.2679 204.474 87.9589 203.122 86.7296L197.252 81.392C196.781 80.9634 196.556 80.3114 196.657 79.6683L198.508 67.8988C198.811 65.9738 196.45 64.8972 195.298 66.4347ZM660.95 83.6836L660.235 88.8003C660.19 89.1117 659.974 89.3792 659.673 89.4934L655.837 90.9484C655.011 91.2613 655.105 92.4276 655.966 92.556L660.043 93.1628C660.339 93.2072 660.585 93.4026 660.689 93.6772L662.244 97.7782C662.538 98.548 663.689 98.4446 663.884 97.6282L664.958 93.1149C665.021 92.8499 665.209 92.6268 665.464 92.5156L668.953 90.9978C669.738 90.6557 669.624 89.5383 668.788 89.4074L665.166 88.8391C664.877 88.7935 664.634 88.6031 664.53 88.3359L662.599 83.4464C662.285 82.6466 661.071 82.8211 660.95 83.6836Z" fill="#EFEBFF"/>
<path d="M609.236 78.3956L602.401 87.517C601.985 88.072 601.307 88.3392 600.643 88.2094L592.195 86.5599C590.378 86.2052 589.281 88.5853 590.684 89.8406L597.323 95.7827C597.808 96.2166 598.037 96.8848 597.925 97.5403L596.26 107.338C595.947 109.18 598.123 110.32 599.355 108.96L606.175 101.43C606.575 100.988 607.156 100.775 607.734 100.857L615.627 101.977C617.405 102.229 618.412 99.9199 617.059 98.6905L611.19 93.353C610.719 92.9244 610.493 92.2724 610.595 91.6292L612.445 79.8597C612.748 77.9347 610.388 76.8581 609.236 78.3956Z" fill="#EFEBFF"/>
<path d="M19.1887 225.985L12.3542 235.107C11.9382 235.662 11.26 235.929 10.5959 235.799L2.1483 234.15C0.331041 233.795 -0.765446 236.175 0.637086 237.43L7.27631 243.373C7.76097 243.806 7.99 244.475 7.87852 245.13L6.21302 254.928C5.89988 256.77 8.07613 257.91 9.30841 256.55L16.128 249.02C16.5286 248.578 17.109 248.364 17.6871 248.446L25.5799 249.567C27.3577 249.819 28.3647 247.51 27.0126 246.28L21.143 240.943C20.6718 240.514 20.4466 239.862 20.5477 239.219L22.3984 227.45C22.7011 225.525 20.341 224.448 19.1887 225.985Z" fill="#EFEBFF"/>
<path d="M399.424 379.112C393.256 396.748 386.297 408.287 367.967 418.501C326.399 441.687 277.199 442.949 241.465 426.526C222.031 417.599 211.273 406.574 199.074 391.087C198.636 390.54 197.792 391.267 198.096 391.816C206.254 406.508 220.267 418.264 235.053 426.039C269.673 444.249 319.94 445.852 365.34 422.392C382.385 413.585 396.958 398.862 400.83 379.475C400.879 379.29 400.851 379.092 400.754 378.927C400.656 378.762 400.496 378.642 400.31 378.594C400.217 378.57 400.121 378.564 400.027 378.577C399.932 378.59 399.841 378.622 399.759 378.67C399.593 378.767 399.472 378.926 399.424 379.112Z" fill="#191919"/>
<path d="M376.215 400.565C375.727 401.173 376.392 402.196 377.07 401.721C386.721 394.519 393.217 383.896 395.209 372.056C395.246 371.899 395.221 371.734 395.139 371.594C395.058 371.454 394.926 371.351 394.771 371.304C394.616 371.258 394.448 371.272 394.303 371.343C394.158 371.415 394.045 371.539 393.989 371.69C389.11 386.644 384.675 391.223 376.215 400.565Z" fill="#191919"/>
<path d="M388.242 368.467C377.887 387.451 376.078 386.944 367.841 397.828C367.289 398.555 368.44 399.274 369.064 398.74C373.541 394.588 377.499 389.914 380.852 384.819C384.614 380.06 387.527 374.693 389.465 368.953C389.496 368.8 389.472 368.642 389.397 368.505C389.322 368.368 389.202 368.261 389.057 368.204C388.911 368.146 388.75 368.141 388.601 368.189C388.453 368.237 388.326 368.336 388.242 368.467Z" fill="#191919"/>
<path d="M359.241 394.91C363.636 391.354 367.593 387.294 371.029 382.813C374.568 379.001 377.438 374.624 379.52 369.865C379.774 369.14 378.73 368.835 378.358 369.379C372.601 378.283 365.838 386.502 358.202 393.876C357.471 394.547 358.513 395.463 359.241 394.91Z" fill="#191919"/>
<path d="M456.421 79.2415C456.585 80.3067 457.128 81.2775 457.953 81.9762C456.788 83.139 455.919 84.5624 455.42 86.1275C454.92 87.6926 454.805 89.354 455.082 90.9727C444.515 100.274 435.639 111.428 431.504 124.71C431.086 126.051 432.734 126.726 433.642 125.988C435.495 124.429 437.675 123.304 440.022 122.693C442.369 122.083 444.824 122.003 447.206 122.46C451.297 123.331 454.846 125.548 458.813 126.717C465.024 128.353 471.629 127.547 477.26 124.468C477.479 124.468 476.823 124.032 489.293 134.862C491.544 131.578 494.8 129.105 498.576 127.81C498.576 127.81 489.293 121.306 484.589 118.084C488.374 112.334 488.066 104.703 478.787 96.7468C472.928 91.7238 466.704 88.397 473.167 80.4564C474.151 79.2459 472.556 77.5998 471.517 78.5731C471.412 78.5637 471.307 78.5841 471.213 78.6319C466.359 81.8553 461.689 85.3443 457.224 89.0828C457.138 86.815 457.78 84.5787 459.058 82.699C459.759 82.8607 460.491 82.8398 461.183 82.6382C461.874 82.4367 462.502 82.0613 463.005 81.5482C463.508 81.0352 463.87 80.4018 464.056 79.709C464.242 79.0163 464.245 78.2877 464.066 77.5933C463.064 73.278 455.666 74.3143 456.421 79.2415ZM482.198 103.982C483.246 105.502 483.919 107.246 484.163 109.073C484.407 110.9 484.215 112.759 483.603 114.498C481.739 112.904 479.781 111.422 477.739 110.061C475.727 108.558 473.531 107.314 471.204 106.359C470.467 106.066 470.174 107.137 470.714 107.513C474.755 110.344 478.105 114.444 482.321 116.998C481.028 118.876 479.339 120.452 477.372 121.616C470.231 125.999 462.471 125.807 454.894 122.589C451.278 120.748 447.289 119.751 443.229 119.671C445.088 114.321 448.257 109.517 452.45 105.691C452.94 105.203 452.275 104.241 451.656 104.718C446.828 108.441 441.518 113.645 440.662 119.976C438.693 120.341 436.796 121.018 435.042 121.981C441.15 105.081 455.443 92.1941 469.494 81.3752C463.171 92.3792 477.234 96.2243 482.198 103.982Z" fill="#0167FF"/>
<path d="M454.283 66.7772C454.361 66.9496 454.489 67.095 454.65 67.1949C454.812 67.2948 454.999 67.3447 455.189 67.3381C455.379 67.3316 455.563 67.269 455.717 67.1582C455.871 67.0475 455.989 66.8936 456.055 66.7162C457.377 60.8771 457.85 54.8791 457.459 48.9061C457.416 46.3522 456.726 41.0048 452.756 41.9758C449.275 42.8271 449.8 48.6035 450.008 51.1552C450.683 56.5376 452.122 61.7973 454.283 66.7772Z" fill="#0167FF"/>
<path d="M433.691 69.3934C437.719 71.8298 442.182 71.9452 446.763 72.189H446.825C447.114 72.2144 447.403 72.142 447.646 71.9836C447.889 71.8251 448.071 71.5898 448.163 71.3156C448.254 71.0415 448.251 70.7446 448.152 70.4728C448.053 70.2011 447.865 69.9704 447.619 69.818C445.066 68.2117 442.726 66.2922 440.655 64.1048C439.377 62.5801 437.922 61.2126 436.319 60.0311C433.98 58.6616 430.46 58.6965 429.416 61.6118C428.261 64.8364 431.186 67.8759 433.691 69.3934Z" fill="#0167FF"/>
<path d="M436.379 91.0937C439.02 87.7168 442.809 80.9912 446.579 79.4214C447.793 78.9184 447.373 76.9915 446.03 77.4161C442.043 78.5761 438.369 80.6118 435.279 83.3731C433.345 85.2173 430.494 88.5986 431.56 91.5183C432.573 94.3226 435.148 92.6679 436.379 91.0937Z" fill="#0167FF"/>
<path d="M479.498 253.218C479.38 252.13 479.498 251.383 478.52 250.908C476.949 250.6 475.334 250.579 473.755 250.847C462.514 250.969 451.278 251.455 440.039 251.879C437.879 249.014 398.619 199.875 390.257 191.397C391.126 190.478 391.6 189.258 391.577 187.997C391.554 186.736 391.036 185.533 390.134 184.647C387.102 181.766 380.07 181.368 378.834 186.408C378.594 187.437 378.637 188.511 378.959 189.517C379.282 190.523 379.871 191.424 380.666 192.124C369.792 203.726 355.352 221.952 339.497 242.031C335.708 246.821 331.555 251.513 328.256 256.619C321.66 256.924 315.064 257.307 308.467 257.708C306.255 257.686 304.045 257.876 301.869 258.274C300.038 258.759 299.933 260.586 299.731 262.287C297.699 279.487 300.359 355.611 303.702 384.649C303.707 384.899 303.792 385.14 303.947 385.336C304.101 385.533 304.316 385.674 304.558 385.738C319.833 388.445 335.398 389.16 350.859 387.865C351.896 387.796 351.953 386.176 350.859 386.224C335.824 386.95 320.755 386.094 305.901 383.672C301.679 341.496 300.213 268.862 302.359 260.453C303.488 260.453 304.278 260.281 305.291 260.209C308.59 259.979 476.871 253.037 477.299 253.037C476.823 254.93 483.644 302.766 482.988 377.288C449.753 381.812 428.292 380.82 407.917 383.672C407.062 383.792 407.245 385.196 408.101 385.196C433.51 383.735 459.051 382.762 484.27 379.237C484.494 379.17 484.692 379.034 484.835 378.848C484.977 378.663 485.057 378.438 485.064 378.205C485.337 336.476 483.479 294.76 479.498 253.218ZM330.457 256.499C334.017 252.423 365.217 211.062 381.46 192.794C382.637 193.525 384.01 193.882 385.396 193.817C386.782 193.751 388.115 193.267 389.218 192.429C389.218 192.429 435.457 249.144 438.021 252.001C426.844 252.428 355.134 255.284 330.457 256.499Z" fill="#282828"/>
<path d="M554.818 170.845C554.277 169.14 548.709 165.312 545.471 163.185C544.06 162.268 542.365 161.886 540.694 162.109C539.024 162.333 537.49 163.147 536.372 164.402L535.211 165.739C534.854 166.13 534.656 166.639 534.656 167.167C534.656 167.696 534.854 168.205 535.211 168.596C537.18 170.817 545.358 180.024 548.337 180.024C551.831 180.024 555.603 173.318 554.818 170.845Z" fill="#0167FF"/>
<path d="M466.803 101.915C466.602 101.867 466.394 101.858 466.191 101.89C465.987 101.922 465.791 101.993 465.615 102.1C465.439 102.208 465.287 102.349 465.166 102.515C465.045 102.681 464.958 102.87 464.91 103.069C464.864 103.249 464.855 103.436 464.883 103.62C464.91 103.803 464.974 103.979 465.071 104.138C465.168 104.296 465.295 104.434 465.446 104.543C465.597 104.652 465.768 104.73 465.95 104.772C466.138 104.828 466.336 104.846 466.531 104.826C466.727 104.805 466.917 104.747 467.089 104.654C467.262 104.561 467.415 104.434 467.539 104.282C467.663 104.13 467.755 103.956 467.811 103.768C467.867 103.581 467.886 103.384 467.865 103.189C467.845 102.995 467.786 102.806 467.693 102.634C467.599 102.462 467.472 102.31 467.32 102.187C467.167 102.063 466.991 101.971 466.803 101.915Z" fill="#0167FF"/>
<path d="M309.762 266.709C312.064 266.566 314.374 266.627 316.665 266.892C317.825 266.907 317.759 265.202 316.665 265.128C309.393 264.64 308.003 264.164 306.953 264.823C305.903 265.483 305.914 266.709 305.859 267.802C305.859 269.382 306.1 286.646 306.227 293.637C306.549 311.561 307.382 359.491 311.051 377.587C311.224 378.438 312.469 378.07 312.335 377.221C309.106 356.754 307.824 268.209 307.936 267.802C308.264 266.593 308.607 266.918 309.762 266.709Z" fill="#0167FF"/>
<path d="M470.03 372.361C466.54 372.644 442.36 374.799 433.747 375.52C427.883 376.012 421.959 377.044 416.093 377.1C415.945 377.11 415.806 377.174 415.705 377.282C415.603 377.389 415.547 377.531 415.547 377.679C415.547 377.826 415.603 377.968 415.705 378.075C415.806 378.183 415.945 378.248 416.093 378.257C429.537 378.285 449.226 376.515 469.846 374.555C471.957 374.487 474.06 374.263 476.138 373.887C478.464 373.292 478.015 371.211 478.033 369.267C478.063 365.618 478.275 343.187 478.275 335.589C478.275 335.323 478.169 335.068 477.98 334.88C477.791 334.692 477.535 334.586 477.268 334.586C477.001 334.586 476.745 334.692 476.556 334.88C476.367 335.068 476.261 335.323 476.261 335.589C476.261 341.607 475.924 361.849 475.893 365.983C475.893 367.018 476.442 371.089 475.711 371.757C474.919 372.48 471.071 372.276 470.03 372.361Z" fill="#0167FF"/>
<path d="M537.906 241.726C521.69 259.266 505.5 276.854 489.336 294.49C488.84 295.03 489.64 295.827 490.13 295.28C507.171 278.563 523.659 261.123 539.057 242.88C539.735 242.09 538.637 240.936 537.906 241.726Z" fill="#0167FF"/>
<path d="M520.003 282.089C513.945 287.014 508.948 293.212 503.389 298.623C502.833 299.165 503.643 299.973 504.245 299.474C510.197 294.395 515.827 288.955 521.104 283.184C521.23 283.035 521.295 282.844 521.286 282.65C521.278 282.456 521.197 282.271 521.058 282.134C520.92 281.996 520.735 281.915 520.54 281.907C520.344 281.899 520.153 281.963 520.003 282.089Z" fill="#0167FF"/>
<path d="M265.228 269.751C265.729 269.152 265.042 268.044 264.311 268.594C254.558 275.958 245.968 285.231 237.13 293.579C227.941 302.251 218.752 310.919 209.826 319.839C209.769 319.89 209.724 319.952 209.692 320.02C209.66 320.089 209.643 320.164 209.641 320.24C209.639 320.316 209.652 320.391 209.681 320.461C209.709 320.532 209.751 320.596 209.805 320.649C209.859 320.703 209.923 320.745 209.994 320.773C210.065 320.802 210.141 320.815 210.217 320.813C210.293 320.811 210.368 320.794 210.437 320.762C210.507 320.731 210.569 320.685 210.62 320.629C221.25 311.267 241.015 292.858 251.361 283.18C256.247 278.981 260.878 274.497 265.228 269.751Z" fill="#0167FF"/>
<path d="M281.596 268.653C270.766 279.104 259.761 289.411 248.978 299.96C248.299 300.613 249.284 301.54 250.017 300.992C261.408 291.104 272.236 280.592 282.451 269.504C282.878 268.896 282.154 268.115 281.596 268.653Z" fill="#0167FF"/>
<path d="M271.163 165.622C275 164.768 278.578 163.017 281.601 160.514C281.791 160.396 281.952 160.238 282.073 160.051C282.194 159.863 282.273 159.652 282.302 159.431C282.331 159.21 282.311 158.986 282.243 158.773C282.174 158.561 282.06 158.367 281.907 158.204C278.002 153.676 273.863 149.354 269.506 145.256C268.765 144.602 267.424 145.443 268.041 146.344C271.272 150.754 274.78 154.956 278.542 158.927C275.855 160.629 272.992 162.038 270.296 163.717C269.325 164.348 270.069 165.809 271.163 165.622Z" fill="#191919"/>
<path d="M254.894 153.22C256.344 151.924 255.266 149.752 254.345 148.541C253.373 147.261 252.391 145.682 250.626 145.562C248.379 145.562 249.035 149.793 250.503 151.7C251.459 152.937 253.288 154.659 254.894 153.22Z" fill="#191919"/>
<path d="M272.495 134.859C268.745 134.859 273.092 145.809 276.711 142.58C278.159 141.285 277.048 139.133 276.16 137.899C275.215 136.582 274.206 135.036 272.495 134.859Z" fill="#191919"/>
<path d="M251.423 139.483C251.538 139.448 251.643 139.385 251.726 139.298C251.809 139.212 251.869 139.106 251.9 138.99C251.931 138.874 251.931 138.753 251.901 138.637C251.871 138.521 251.812 138.414 251.73 138.327C250.566 137.623 249.225 137.261 247.864 137.282C246.502 137.304 245.174 137.708 244.033 138.449C243.047 139.253 242.267 140.278 241.757 141.441C241.248 142.603 241.023 143.87 241.101 145.135C241.108 145.282 241.161 145.422 241.253 145.537C241.344 145.651 241.469 145.735 241.611 145.775C241.752 145.815 241.903 145.811 242.041 145.762C242.18 145.712 242.299 145.621 242.383 145.501C243.3 143.86 243.56 141.874 245.07 140.637C247.048 139.022 249.222 139.771 251.423 139.483Z" fill="#191919"/>
<path d="M264.616 175.469C265.657 180.439 269.565 189.103 275.855 188.532C283.075 187.879 281.421 177.892 280.985 173.03C280.978 172.877 280.937 172.728 280.866 172.592C280.795 172.457 280.694 172.339 280.572 172.246C280.45 172.153 280.309 172.088 280.159 172.055C280.009 172.023 279.853 172.023 279.703 172.057C274.836 172.627 270.003 173.459 265.226 174.55C265.121 174.562 265.021 174.596 264.931 174.651C264.841 174.706 264.764 174.78 264.706 174.867C264.647 174.955 264.609 175.054 264.594 175.158C264.578 175.262 264.586 175.368 264.616 175.469ZM279.091 174.254C279.581 178.569 280.497 186.592 275.303 186.653C270.234 186.714 267.79 179.967 266.333 175.832C270.632 175.789 274.912 175.259 279.091 174.254Z" fill="#191919"/>
<path d="M491.785 162.037C492.52 160.395 492.706 160.03 491.907 158.51C490.32 155.641 489.566 152.391 489.728 149.12C489.891 145.85 490.963 142.689 492.826 139.99C494.689 137.292 497.269 135.161 500.279 133.838C503.288 132.514 506.608 132.048 509.867 132.493C510.845 132.602 511.027 130.969 510.11 130.791C506.539 130.102 502.846 130.424 499.45 131.719C496.054 133.014 493.09 135.23 490.896 138.117C488.701 141.003 487.364 144.444 487.035 148.049C486.707 151.653 487.4 155.277 489.037 158.51C489.932 160.252 489.582 160.818 488.73 162.647C480.988 179.283 461.028 199.456 435.162 228.183C434.615 228.792 435.457 229.63 436.017 229.034C451.31 212.754 482.786 182.151 491.785 162.037Z" fill="#191919"/>
<path d="M507.481 150.302C507.599 151.153 508.956 150.91 508.947 150.121C508.871 147.649 509.334 145.19 510.304 142.913C511.274 140.636 512.727 138.595 514.565 136.929C518.827 133.265 523.973 133.032 529.287 133.465C529.459 133.461 529.624 133.401 529.758 133.295C529.892 133.188 529.987 133.04 530.029 132.875C530.07 132.709 530.056 132.534 529.988 132.377C529.92 132.22 529.802 132.09 529.652 132.007C520.035 127.328 505.494 136.174 507.481 150.302Z" fill="#191919"/>
<path d="M519.938 143.251C517.83 145.07 516.286 147.449 515.485 150.109C514.685 152.769 514.661 155.601 515.418 158.274C515.615 158.927 516.768 158.881 516.7 158.091C516.365 155.726 516.595 153.316 517.37 151.056C518.145 148.796 519.443 146.75 521.161 145.082C525.482 141.235 530.131 141.992 535.382 142.469C536.174 142.541 536.241 141.489 535.747 141.132C531.225 137.836 523.9 139.895 519.938 143.251Z" fill="#191919"/>
<path d="M542.602 151.517C543.275 151.572 543.457 150.605 542.908 150.3C536.25 145.863 526.937 151.711 524.583 158.265C524.342 158.933 525.381 159.299 525.677 158.75C527.369 155.651 530.12 153.257 533.432 152.001C536.413 151.152 539.548 150.987 542.602 151.517Z" fill="#191919"/>
<path d="M547.789 158.814C547.141 157.62 546.131 156.659 544.903 156.069C543.674 155.48 542.29 155.291 540.947 155.531C537.925 156.325 535.337 158.268 533.741 160.941C533.318 161.492 534.239 162.23 534.719 161.732C537.344 158.995 543.056 155.217 545.835 160.029C546.544 161.259 548.436 160.103 547.789 158.814Z" fill="#191919"/>
<path d="M527.64 174.679C517.428 193.508 520.217 189.485 506.751 208.599C494.39 226.15 484.72 234.173 477.981 242.882C477.369 243.673 478.655 244.467 479.325 243.916C485.087 238.826 490.4 233.253 495.206 227.26C508.888 211.648 520.15 194.089 528.618 175.165C528.676 175.036 528.681 174.891 528.634 174.759C528.586 174.627 528.489 174.518 528.363 174.456C528.237 174.393 528.091 174.381 527.957 174.423C527.822 174.465 527.709 174.556 527.64 174.679Z" fill="#191919"/>
<path d="M263.881 354.486C263.945 354.446 264 354.394 264.044 354.333C264.088 354.271 264.119 354.202 264.136 354.129C264.153 354.056 264.156 353.98 264.143 353.906C264.131 353.831 264.104 353.76 264.063 353.697C264.023 353.633 263.971 353.578 263.91 353.534C263.848 353.49 263.778 353.459 263.705 353.442C263.631 353.425 263.555 353.423 263.48 353.436C263.406 353.448 263.334 353.475 263.27 353.515C244.729 364.967 225.537 375.575 204.326 380.99C200.791 381.581 197.301 382.414 193.881 383.483C191.134 377.404 188.02 371.628 185.758 365.307C178.95 346.852 177.407 326.883 181.299 307.609C186.161 285.904 199.918 266.87 216.849 252.779C228.066 243.847 240.727 236.88 254.292 232.173C255.086 234.3 255.856 236.436 256.613 238.616C257.206 240.325 259.908 239.589 259.302 237.886C253.432 221.42 243.468 197.663 234.746 184.325C235.6 183.771 236.311 183.026 236.822 182.148C237.373 181.236 236.006 180.062 235.233 180.933C230.958 185.751 224.487 183.18 221.918 178.135C219.844 174.062 221.848 164.114 228.211 166.951C228.267 166.982 228.329 167.003 228.393 167.011C228.457 167.019 228.522 167.015 228.584 166.998C228.647 166.981 228.705 166.952 228.756 166.912C228.807 166.873 228.85 166.824 228.882 166.768C228.914 166.712 228.935 166.65 228.943 166.586C228.951 166.522 228.946 166.458 228.929 166.396C228.912 166.334 228.883 166.275 228.844 166.225C228.804 166.174 228.755 166.131 228.698 166.099C223.415 162.753 217.88 169.55 218.987 176.313C218.925 176.252 218.925 176.191 218.864 176.191C216.105 184.43 214.784 192.427 207.991 199.107C194.356 212.519 169.502 220.207 156.796 236.249C144.57 259.981 135.027 289.666 141.098 315.761C144.279 329.436 150.381 336.245 150.442 336.306C150.474 336.338 150.512 336.363 150.555 336.381C150.597 336.398 150.642 336.407 150.687 336.407C150.733 336.407 150.778 336.398 150.82 336.381C150.862 336.363 150.9 336.338 150.932 336.306C157.955 329.448 167.105 325.163 176.891 324.148C176.514 337.662 178.604 351.133 183.06 363.905C185.42 371.384 188.769 378.519 193.017 385.12C193.117 385.279 193.275 385.393 193.457 385.438C193.64 385.483 193.833 385.456 193.995 385.362C197.739 385.148 201.437 384.432 204.989 383.235C230.278 376.931 249.373 363.374 263.881 354.486Z" fill="#191919"/>
<path d="M207.385 196.317C216.862 186.083 213.233 171.631 224.61 162.569C226.071 161.406 227.672 160.32 229.191 159.286C237.621 148.399 238.721 131.264 238.903 126.339C240.419 125.586 242.998 124.728 253.624 119.653C259.274 122.528 265.543 123.988 271.888 123.907C279.583 123.705 283.703 119.744 288.868 114.545C289.415 113.994 290.2 114.721 289.907 115.335C288.089 118.961 285.184 121.934 281.594 123.844C281.5 123.868 281.413 123.913 281.339 123.974C281.265 124.036 281.205 124.113 281.165 124.2C281.124 124.287 281.103 124.382 281.103 124.478C281.104 124.575 281.126 124.669 281.167 124.756C293.086 151.197 300.181 157.947 299.49 168.89C298.451 185.363 281.331 200.514 264.795 198.189C264.001 198.076 263.82 199.402 264.614 199.587C268.081 200.276 271.651 200.265 275.114 199.554C278.577 198.844 281.86 197.448 284.77 195.45C285.326 199.171 289.881 208.409 292.646 210.891C295.033 212.575 297.91 213.43 300.833 213.323C301.625 213.387 302.422 213.443 303.155 213.443C301.354 230.535 285.468 242.595 266.568 239.547C266.491 239.526 266.412 239.522 266.334 239.532C266.256 239.543 266.181 239.568 266.113 239.608C266.045 239.647 265.985 239.7 265.937 239.762C265.89 239.824 265.855 239.895 265.835 239.971C265.815 240.047 265.81 240.126 265.82 240.203C265.831 240.281 265.857 240.356 265.896 240.424C265.936 240.491 265.988 240.551 266.051 240.598C266.114 240.646 266.185 240.68 266.261 240.7C271.309 242.019 276.604 242.087 281.685 240.899C286.765 239.711 291.476 237.303 295.405 233.886C301.336 228.573 305.115 221.29 306.034 213.402C314.159 213.402 324.296 211.388 334.865 213.036C341.289 213.987 347.637 215.388 353.862 217.229C354.656 217.473 355.201 216.21 354.411 215.893C345.201 211.997 335.338 209.855 325.335 209.578C326.527 181.229 319.373 153.15 304.752 128.791C298.593 118.306 291.122 108.641 282.517 100.029C284.298 90.9387 285.58 74.1868 278.301 67.8052C272.197 62.4534 264.319 67.4459 259 71.4521C253.812 75.5256 249.492 80.5887 246.295 86.3447C237.01 81.6635 225.894 83.2965 216.609 87.9863C216.499 87.1194 216.132 86.3046 215.555 85.6456C214.979 84.9865 214.218 84.5129 213.371 84.285C212.236 83.9836 211.048 83.9418 209.895 84.1628C208.742 84.3837 207.654 84.8617 206.713 85.5609C204.022 87.6227 202.009 93.8889 205.919 95.6525C196.634 104.71 190.707 119.056 193.58 131.943C193.615 132.055 193.688 132.15 193.787 132.213C193.886 132.276 194.003 132.302 194.12 132.288C194.236 132.273 194.343 132.219 194.423 132.134C194.504 132.048 194.551 131.938 194.558 131.821C193.523 121.948 196.009 112.027 201.581 103.793C207.153 95.5586 215.456 89.536 225.038 86.7779C231.796 85.1138 238.899 85.4929 245.44 87.8666C244.217 89.9938 243.07 92.1907 241.957 94.3723C236.888 104.312 232.063 114.795 232.184 126.102C214.758 133.596 209.883 134.493 193.092 139.718C192.991 139.747 192.897 139.795 192.815 139.86C192.733 139.924 192.665 140.005 192.614 140.096C192.564 140.187 192.531 140.287 192.519 140.39C192.507 140.493 192.516 140.598 192.545 140.698C192.574 140.798 192.622 140.892 192.687 140.973C192.752 141.055 192.832 141.123 192.924 141.173C193.015 141.224 193.116 141.256 193.22 141.268C193.324 141.28 193.429 141.271 193.529 141.243C195.242 141.025 196.951 140.635 198.601 140.332C194.663 194.431 179.21 196.393 160.047 230.419C173.679 216.57 194.321 210.417 207.385 196.317ZM206.774 94.9231C204.453 92.8569 205.49 89.0859 207.691 87.3854C210.133 85.4977 214.226 85.6218 214.655 89.2078C211.783 90.7532 209.132 92.6755 206.774 94.9231ZM241.408 100.453C245.149 92.7415 248.98 84.5266 254.907 78.206C269.09 63.0848 280.99 63.9623 281.478 84.5898C281.594 89.8328 281.123 95.0725 280.073 100.212L275.308 104.954C264.008 112.37 251.533 117.619 239.22 123.128C237.325 123.975 235.433 124.83 233.479 125.621C234.719 116.856 237.398 108.354 241.408 100.453Z" fill="#191919"/>
<path d="M276.036 128.356C274.988 127.811 273.831 127.502 272.649 127.449C271.467 127.397 270.288 127.603 269.195 128.053C268.27 128.509 267.467 129.177 266.852 130.001C266.236 130.825 265.825 131.783 265.653 132.796C265.465 133.584 266.648 134.143 267.058 133.403C267.955 131.783 268.652 130.198 270.541 129.634C272.249 129.357 273.997 129.439 275.671 129.876C275.841 129.855 276 129.783 276.127 129.67C276.254 129.557 276.344 129.408 276.384 129.242C276.424 129.077 276.412 128.903 276.349 128.745C276.287 128.587 276.178 128.451 276.036 128.356Z" fill="#191919"/>
<path d="M408.779 236.317C403.622 234.692 398.021 233.793 392.714 232.67C387.406 231.546 382.024 230.36 376.651 229.326C376.822 227.405 376.842 225.475 376.71 223.551C376.704 223.381 376.657 223.214 376.572 223.065C376.487 222.917 376.367 222.791 376.222 222.7C372.296 220.633 367.955 219.47 363.517 219.297C362.6 219.284 362.659 220.582 363.517 220.695C366.59 221.013 369.596 221.791 372.435 223.005C373.176 223.351 374.207 223.612 374.572 224.403C376.401 227.588 372.901 238.041 370.724 242.692C370.645 242.852 370.629 243.036 370.68 243.207C370.731 243.378 370.845 243.524 370.998 243.616C371.152 243.708 371.335 243.739 371.511 243.703C371.686 243.666 371.842 243.566 371.947 243.421C374.28 239.75 375.8 235.626 376.406 231.324C381.842 232.539 387.345 233.519 392.775 234.605C397.988 235.862 403.271 236.817 408.595 237.464C409.326 237.532 409.385 236.5 408.779 236.317Z" fill="#191919"/>
<path d="M465.024 302.012L319.989 306.077C319.73 306.106 319.48 306.187 319.253 306.316C319.026 306.444 318.827 306.617 318.667 306.825C318.507 307.032 318.391 307.27 318.324 307.525C318.257 307.779 318.241 308.044 318.277 308.304L320.922 367.534C320.982 367.995 321.211 368.416 321.562 368.716C321.914 369.015 322.363 369.172 322.823 369.154L466.85 365.117C467.339 365.098 467.802 364.885 468.138 364.525C468.474 364.165 468.657 363.687 468.648 363.191L466.966 303.73C466.966 303.483 466.914 303.238 466.813 303.013C466.713 302.788 466.565 302.587 466.381 302.425C466.197 302.262 465.981 302.141 465.747 302.07C465.513 301.999 465.266 301.979 465.024 302.012ZM372.446 357.472L336.348 358.484C335.827 358.493 335.321 358.299 334.937 357.941C334.553 357.583 334.321 357.089 334.289 356.563C333.944 350.053 332.872 329.335 332.288 317.205C332.274 316.934 332.314 316.663 332.405 316.408C332.496 316.153 332.637 315.919 332.819 315.72C333.002 315.521 333.222 315.361 333.466 315.25C333.711 315.139 333.975 315.078 334.244 315.072L370.502 314.056C371.03 314.038 371.544 314.232 371.932 314.595C372.321 314.958 372.551 315.461 372.574 315.995C372.948 326.379 374.101 347.214 374.411 355.317C374.422 355.589 374.381 355.86 374.288 356.116C374.195 356.372 374.054 356.606 373.871 356.807C373.689 357.007 373.469 357.169 373.225 357.283C372.98 357.397 372.716 357.461 372.446 357.472ZM383.672 326.688C384.769 325.912 386.112 326.012 386.539 326.853C386.727 327.402 386.718 328.001 386.514 328.543C386.309 329.086 385.921 329.538 385.419 329.82C384.312 330.583 382.98 330.497 382.551 329.655C381.998 328.815 382.556 327.48 383.672 326.688ZM382.883 340.121C382.69 339.563 382.706 338.952 382.928 338.405C383.15 337.857 383.563 337.412 384.089 337.152C385.27 336.385 386.651 336.472 387.118 337.312C387.307 337.871 387.289 338.481 387.067 339.027C386.845 339.573 386.434 340.018 385.91 340.28C384.764 341.086 383.376 341.012 382.883 340.121ZM386.745 349.795C385.563 350.562 384.183 350.475 383.716 349.635C383.526 349.076 383.544 348.467 383.766 347.921C383.988 347.375 384.398 346.929 384.922 346.667C386.103 345.9 387.483 345.987 387.95 346.826C388.15 347.384 388.138 347.997 387.915 348.546C387.692 349.095 387.275 349.54 386.745 349.795ZM428.891 348.859C415.778 349.94 400.95 350.251 395.648 349.546C390.344 348.798 396.674 347.315 409.793 346.214C422.911 345.112 437.734 344.822 443.036 345.527C448.293 346.276 441.965 347.779 428.891 348.859ZM401.749 335.72C408.412 334.782 416.033 334.712 418.756 335.487C421.481 336.309 418.256 337.703 411.547 338.625C404.881 339.545 397.263 339.633 394.539 338.856C391.816 338.079 395.039 336.665 401.749 335.72ZM428.817 327.663C415.013 328.845 399.307 329.224 393.681 328.526C388.099 327.827 394.788 326.294 408.584 325.133C422.388 323.935 438.095 323.572 443.72 324.27C449.303 324.973 442.651 326.483 428.811 327.666L428.817 327.663Z" fill="#0167FF"/>
<path d="M466.774 271.459L320.915 275.547C320.124 275.569 319.562 276.67 319.6 278.007L319.955 290.572C319.993 291.909 320.702 293.059 321.495 292.952L467.353 288.864C468.144 288.842 468.706 287.741 468.668 286.404L468.313 273.839C468.196 272.504 467.568 271.437 466.774 271.459ZM465.121 281.909C465.128 282.09 465.1 282.271 465.039 282.441C464.979 282.611 464.886 282.766 464.768 282.898C464.649 283.029 464.507 283.135 464.348 283.208C464.19 283.281 464.02 283.319 463.847 283.322L324.387 287.231C324.215 287.237 324.043 287.208 323.881 287.144C323.719 287.08 323.571 286.983 323.445 286.858C323.319 286.733 323.219 286.583 323.149 286.417C323.079 286.251 323.041 286.072 323.038 285.891L322.944 282.591C322.937 282.41 322.965 282.229 323.025 282.059C323.086 281.89 323.178 281.734 323.296 281.603C323.415 281.471 323.557 281.366 323.715 281.293C323.873 281.22 324.043 281.181 324.216 281.178L463.676 277.269C463.848 277.262 464.021 277.292 464.182 277.356C464.344 277.42 464.493 277.517 464.618 277.642C464.744 277.767 464.845 277.916 464.915 278.083C464.986 278.249 465.024 278.428 465.027 278.609L465.121 281.909Z" fill="#0167FF"/>
</svg>
