<svg width="176" height="36" viewBox="0 0 176 36" fill="none" xmlns="http://www.w3.org/2000/svg">
<path fill-rule="evenodd" clip-rule="evenodd" d="M80 0H0V36H80V0ZM13.9219 20L10.5547 20.2109C10.6536 21.3672 11.0781 22.3203 11.8281 23.0703C12.5781 23.8203 13.9271 24.1953 15.875 24.1953C16.9844 24.1953 17.9036 24.0365 18.6328 23.7188C19.362 23.3958 19.9297 22.9245 20.3359 22.3047C20.7422 21.6849 20.9453 21.0078 20.9453 20.2734C20.9453 19.6484 20.7917 19.0833 20.4844 18.5781C20.1823 18.0729 19.6953 17.651 19.0234 17.3125C18.3568 16.9688 17.25 16.6302 15.7031 16.2969C15.0781 16.1667 14.6823 16.026 14.5156 15.875C14.3438 15.7292 14.2578 15.5651 14.2578 15.3828C14.2578 15.1328 14.362 14.9219 14.5703 14.75C14.7786 14.5729 15.0885 14.4844 15.5 14.4844C16 14.4844 16.3906 14.6016 16.6719 14.8359C16.9583 15.0703 17.1458 15.4453 17.2344 15.9609L20.5703 15.7656C20.4245 14.5781 19.9661 13.7135 19.1953 13.1719C18.4297 12.625 17.3151 12.3516 15.8516 12.3516C14.6589 12.3516 13.7188 12.5026 13.0312 12.8047C12.349 13.1016 11.8359 13.513 11.4922 14.0391C11.1536 14.5599 10.9844 15.1146 10.9844 15.7031C10.9844 16.599 11.3177 17.3359 11.9844 17.9141C12.6458 18.4922 13.7526 18.9557 15.3047 19.3047C16.2526 19.513 16.8568 19.7344 17.1172 19.9688C17.3776 20.2031 17.5078 20.4688 17.5078 20.7656C17.5078 21.0781 17.3698 21.3542 17.0938 21.5938C16.8229 21.8281 16.4349 21.9453 15.9297 21.9453C15.2526 21.9453 14.7318 21.7135 14.3672 21.25C14.1432 20.9635 13.9948 20.5469 13.9219 20ZM32.6875 12.5469H21.9297V15.375H25.5391V24H29.0781V15.375H32.6875V12.5469ZM34.8672 13.9141C33.8255 14.9557 33.3047 16.4115 33.3047 18.2812C33.3047 19.6198 33.5677 20.7344 34.0938 21.625C34.6198 22.5156 35.3047 23.1667 36.1484 23.5781C36.9974 23.9896 38.0677 24.1953 39.3594 24.1953C40.6302 24.1953 41.6901 23.9583 42.5391 23.4844C43.3932 23.0052 44.0443 22.3385 44.4922 21.4844C44.9453 20.625 45.1719 19.526 45.1719 18.1875C45.1719 16.3438 44.6562 14.9115 43.625 13.8906C42.5938 12.8646 41.125 12.3516 39.2188 12.3516C37.3594 12.3516 35.9089 12.8724 34.8672 13.9141ZM37.4844 20.7891C37.0573 20.2839 36.8438 19.4531 36.8438 18.2969C36.8438 17.1302 37.0599 16.2943 37.4922 15.7891C37.9245 15.2839 38.4974 15.0312 39.2109 15.0312C39.9557 15.0312 40.5443 15.2812 40.9766 15.7812C41.4141 16.276 41.6328 17.0625 41.6328 18.1406C41.6328 19.4219 41.4245 20.3099 41.0078 20.8047C40.5911 21.2995 40.0026 21.5469 39.2422 21.5469C38.5026 21.5469 37.9167 21.2943 37.4844 20.7891ZM47.125 12.5469V24H50.6797V19.3516H50.9922C51.3151 19.3516 51.6042 19.4401 51.8594 19.6172C52.0469 19.7526 52.2604 20.0469 52.5 20.5L54.3906 24H58.3906L56.6797 20.6797C56.5964 20.513 56.4297 20.276 56.1797 19.9688C55.9349 19.6615 55.7474 19.4609 55.6172 19.3672C55.4245 19.2266 55.1172 19.0859 54.6953 18.9453C55.2214 18.8255 55.6354 18.6745 55.9375 18.4922C56.4115 18.2057 56.7839 17.8333 57.0547 17.375C57.3255 16.9115 57.4609 16.362 57.4609 15.7266C57.4609 14.9974 57.2839 14.3802 56.9297 13.875C56.5755 13.3646 56.1094 13.0156 55.5312 12.8281C54.9531 12.6406 54.1172 12.5469 53.0234 12.5469H47.125ZM52.1719 17.1875H50.6797V14.8594H52.2344C52.8802 14.8594 53.3203 14.9583 53.5547 15.1562C53.7891 15.3542 53.9062 15.638 53.9062 16.0078C53.9062 16.2578 53.8307 16.4792 53.6797 16.6719C53.5339 16.8646 53.3438 16.9844 53.1094 17.0312C52.6458 17.1354 52.3333 17.1875 52.1719 17.1875ZM69.0078 12.5469H59.5234V24H69.1797V21.4062H63.0703V19.1484H68.5781V16.8125H63.0703V14.9922H69.0078V12.5469Z" fill="white"/>
<mask id="path-2-inside-1_3833_17169" fill="white">
<path d="M80 0H176V36H80V0Z"/>
</mask>
<path d="M176 0H178V-2H176V0ZM176 36V38H178V36H176ZM80 2H176V-2H80V2ZM174 0V36H178V0H174ZM176 34H80V38H176V34Z" fill="white" mask="url(#path-2-inside-1_3833_17169)"/>
<path d="M91.1797 12.5469H97.8047C98.9089 12.5469 99.7552 12.8203 100.344 13.3672C100.938 13.9141 101.234 14.5911 101.234 15.3984C101.234 16.0755 101.023 16.6562 100.602 17.1406C100.32 17.4635 99.9089 17.7188 99.3672 17.9062C100.19 18.1042 100.794 18.4453 101.18 18.9297C101.57 19.4089 101.766 20.013 101.766 20.7422C101.766 21.3359 101.628 21.8698 101.352 22.3438C101.076 22.8177 100.698 23.1927 100.219 23.4688C99.9219 23.6406 99.474 23.7656 98.875 23.8438C98.0781 23.9479 97.5495 24 97.2891 24H91.1797V12.5469ZM94.75 17.0391H96.2891C96.8411 17.0391 97.224 16.9453 97.4375 16.7578C97.6562 16.5651 97.7656 16.2891 97.7656 15.9297C97.7656 15.5964 97.6562 15.3359 97.4375 15.1484C97.224 14.9609 96.849 14.8672 96.3125 14.8672H94.75V17.0391ZM94.75 21.5391H96.5547C97.1641 21.5391 97.5938 21.4323 97.8438 21.2188C98.0938 21 98.2188 20.7083 98.2188 20.3438C98.2188 20.0052 98.0938 19.7344 97.8438 19.5312C97.599 19.3229 97.1667 19.2188 96.5469 19.2188H94.75V21.5391ZM110.391 22.1094H106.359L105.805 24H102.188L106.492 12.5469H110.352L114.656 24H110.953L110.391 22.1094ZM109.648 19.6328L108.383 15.5156L107.125 19.6328H109.648ZM115.82 12.5469H119.125L123.438 18.8828V12.5469H126.773V24H123.438L119.148 17.7109V24H115.82V12.5469ZM129.148 12.5469H132.453L136.766 18.8828V12.5469H140.102V24H136.766L132.477 17.7109V24H129.148V12.5469ZM142.445 12.5469H151.93V14.9922H145.992V16.8125H151.5V19.1484H145.992V21.4062H152.102V24H142.445V12.5469ZM154.062 24V12.5469H159.961C161.055 12.5469 161.891 12.6406 162.469 12.8281C163.047 13.0156 163.513 13.3646 163.867 13.875C164.221 14.3802 164.398 14.9974 164.398 15.7266C164.398 16.362 164.263 16.9115 163.992 17.375C163.721 17.8333 163.349 18.2057 162.875 18.4922C162.573 18.6745 162.159 18.8255 161.633 18.9453C162.055 19.0859 162.362 19.2266 162.555 19.3672C162.685 19.4609 162.872 19.6615 163.117 19.9688C163.367 20.276 163.534 20.513 163.617 20.6797L165.328 24H161.328L159.438 20.5C159.198 20.0469 158.984 19.7526 158.797 19.6172C158.542 19.4401 158.253 19.3516 157.93 19.3516H157.617V24H154.062ZM157.617 17.1875H159.109C159.271 17.1875 159.583 17.1354 160.047 17.0312C160.281 16.9844 160.471 16.8646 160.617 16.6719C160.768 16.4792 160.844 16.2578 160.844 16.0078C160.844 15.638 160.727 15.3542 160.492 15.1562C160.258 14.9583 159.818 14.8594 159.172 14.8594H157.617V17.1875Z" fill="white"/>
</svg>
