<svg width="20" height="20" viewBox="0 0 20 20" fill="none" xmlns="http://www.w3.org/2000/svg">
<path d="M16.7901 13.921C16.7773 13.856 16.7836 13.7888 16.8082 13.7271C16.8328 13.6655 16.8747 13.612 16.9291 13.5727C17.7816 13.0296 18.7785 12.7445 19.7954 12.753C19.0449 12.1293 17.6632 11.3471 15.3613 11.0898V13.1548C15.3561 13.6174 15.1662 14.0595 14.8324 14.3866C14.4985 14.7137 14.0473 14.8997 13.5752 14.9048H7.92114C7.64744 14.899 7.38113 14.9921 7.17304 15.1664C6.96496 15.3407 6.82969 15.584 6.79305 15.8498C6.78028 15.9954 6.79826 16.142 6.84587 16.2805C6.89348 16.419 6.9697 16.5464 7.06977 16.6548C7.16985 16.7632 7.29164 16.8502 7.42754 16.9104C7.56345 16.9706 7.71056 17.0028 7.8597 17.0048C9.3749 16.9475 10.8828 16.7686 12.3681 16.47C14.8853 15.9927 17.4372 15.7125 19.9997 15.6321C19.0295 14.7022 17.0705 14.1971 17.052 14.194C16.9864 14.1775 16.927 14.143 16.8806 14.0947C16.8343 14.0464 16.8029 13.9861 16.7901 13.921Z" fill="#B9B9BA"/>
<path fill-rule="evenodd" clip-rule="evenodd" d="M6.78714 12.9455C7.44835 12.8482 8.08241 12.747 8.69325 12.649C10.2925 12.3446 11.9136 12.163 13.5418 12.1058C13.8285 12.1076 14.1034 12.2178 14.3091 12.4135C14.5149 12.6091 14.6355 12.8751 14.6459 13.1558C14.6436 13.4336 14.5299 13.6993 14.3295 13.8957C14.129 14.0922 13.8578 14.2035 13.5743 14.2058H7.92023C7.51033 14.2077 7.11235 14.3411 6.78714 14.5855V12.9455ZM14.3414 3.31827C14.5384 3.51504 14.6479 3.78023 14.6459 4.05585V11.7604C14.3266 11.5294 13.94 11.4051 13.5432 11.4058H13.5385C11.8727 11.4627 10.214 11.648 8.57787 11.9599C5.86402 12.4483 3.11552 12.7291 0.357226 12.7999C0.310223 12.8002 0.263622 12.7913 0.220133 12.7739C0.176643 12.7564 0.137131 12.7306 0.103894 12.6981C0.070657 12.6655 0.0443572 12.6268 0.0265231 12.5842C0.00868905 12.5416 -0.000323649 12.4959 8.87704e-06 12.4499V4.7499C8.87704e-06 4.65707 0.0376441 4.56805 0.104635 4.50241C0.171627 4.43678 0.262486 4.3999 0.357226 4.3999C3.15449 4.32917 5.94187 4.04469 8.69396 3.54906C10.3035 3.24172 11.9354 3.06008 13.5743 3.00586H13.5946C13.8759 3.00918 14.1444 3.12151 14.3414 3.31827ZM10.2301 9.04417C10.082 9.18999 9.88103 9.27191 9.67152 9.27191C9.50153 9.27133 9.33629 9.21668 9.20043 9.11612C9.06457 9.01555 8.96537 8.87446 8.91763 8.71388L6.77497 8.29218V10.3087C6.77497 10.5149 6.69174 10.7127 6.54359 10.8585C6.39545 11.0043 6.19452 11.0862 5.985 11.0862C5.77549 11.0862 5.57456 11.0043 5.42641 10.8585C5.27826 10.7127 5.19504 10.5149 5.19504 10.3087V8.20924C4.87506 8.14529 4.59064 7.96659 4.39699 7.70783C4.20334 7.44908 4.11427 7.12873 4.14709 6.80898C4.1799 6.48922 4.33225 6.19288 4.57456 5.97747C4.81687 5.76206 5.13185 5.64295 5.45836 5.64328H6.48532L8.91763 5.16456C8.97065 4.98507 9.08779 4.83048 9.24745 4.72927C9.40711 4.62806 9.59855 4.58704 9.7865 4.61376C9.97446 4.64049 10.1463 4.73316 10.2703 4.87472C10.3943 5.01627 10.4622 5.19716 10.4615 5.38409V8.49435C10.4615 8.70057 10.3783 8.89835 10.2301 9.04417ZM9.85771 5.20081C9.80833 5.15221 9.74135 5.1249 9.67152 5.1249C9.60168 5.1249 9.5347 5.15221 9.48532 5.20081C9.43594 5.24942 9.40819 5.31535 9.40819 5.38409V8.49435C9.40819 8.56309 9.43594 8.62901 9.48532 8.67762C9.5347 8.72623 9.60168 8.75353 9.67152 8.75353C9.74135 8.75353 9.80833 8.72623 9.85771 8.67762C9.9071 8.62901 9.93484 8.56309 9.93484 8.49435V5.38409C9.93484 5.31535 9.9071 5.24942 9.85771 5.20081ZM5.72168 9.5311H6.24833V8.23516H5.72168V9.5311ZM4.89977 6.3894C4.75162 6.53522 4.66839 6.73299 4.66839 6.93922C4.66839 7.14544 4.75162 7.34322 4.89977 7.48904C5.04791 7.63486 5.24885 7.71678 5.45836 7.71678H6.24833V6.16165H5.45836C5.24885 6.16165 5.04791 6.24357 4.89977 6.3894ZM5.79881 10.4919C5.84819 10.5405 5.91517 10.5679 5.985 10.5679C6.05484 10.5679 6.12182 10.5405 6.1712 10.4919C6.22058 10.4433 6.24833 10.3774 6.24833 10.3087V10.0495H5.72168V10.3087C5.72168 10.3774 5.74942 10.4433 5.79881 10.4919ZM8.88155 5.70004L6.77497 6.11474V7.76318L8.88155 8.17788V5.70004Z" fill="#B9B9BA"/>
</svg>
